#!OML:ASF H:\BreakDance\Project 1\Capture day 1\Session 1\Male.ASF
:FULLY-SPECIFIED
:DEGREES
360
root 26.3227 15.7589 -1.00878 5.9572 -20.4075 10.5086
lowerback 0.344078 -1.6392 -2.72265
upperback -0.550601 -2.22499 -1.91086
thorax -0.729635 -1.10551 -0.411723
lowerneck 2.1015 -15.3769 -7.94127
upperneck -7.39863 -20.4417 9.20121
head -0.872974 -10.2886 4.26987
rclavicle -1.92821e-014 2.78299e-014
rhumerus -34.2953 35.5985 -99.146
rradius 46.4566
rwrist -5.87726
rhand -23.9919 -26.3042
rfingers 7.12502
rthumb 2.4852 -56.2694
lclavicle -1.92821e-014 2.78299e-014
lhumerus -17.1792 -33.705 80.6848
lradius 43.321
lwrist 8.9004
lhand -22.0299 -24.9641
lfingers 7.12502
lthumb 4.3799 4.97059
rfemur -31.6354 -5.04781 21.5367
rtibia 59.5984
rfoot -24.7094 -7.64187
rtoes 2.75274
lfemur -11.6425 -5.27718 -14.5453
ltibia 48.8152
lfoot -23.2454 5.10223
ltoes -32.1404
361
root 26.3786 15.6772 -1.10281 5.78928 -19.6569 10.5424
lowerback 0.6232 -1.7309 -2.77533
upperback -0.56643 -2.3582 -1.76369
thorax -0.892341 -1.16922 -0.221032
lowerneck 2.1118 -15.4083 -8.19139
upperneck -7.73856 -20.4826 9.2442
head -0.952409 -10.3037 4.34013
rclavicle 3.79679e-014 5.56597e-015
rhumerus -34.2153 35.8891 -98.7476
rradius 45.7961
rwrist -5.66214
rhand -24.2178 -26.2155
rfingers 7.12502
rthumb 2.26701 -56.1832
lclavicle 3.79679e-014 5.56597e-015
lhumerus -17.2535 -33.1023 81.1566
lradius 43.3847
lwrist 7.94888
lhand -21.9761 -25.3275
lfingers 7.12502
lthumb 4.43184 4.60612
rfemur -32.2385 -6.03645 21.5785
rtibia 60.3878
rfoot -25.4128 -7.81728
rtoes 1.96142
lfemur -9.60623 -5.43848 -14.1088
ltibia 48.5059
lfoot -22.6092 5.40361
ltoes -31.8784
362
root 26.4353 15.6025 -1.19612 5.65212 -19.0206 10.4112
lowerback 0.971499 -1.82199 -2.71353
upperback -0.559887 -2.48958 -1.52151
thorax -1.07052 -1.23205 0.0060462
lowerneck 2.12866 -15.4033 -8.53556
upperneck -8.15034 -20.4751 9.35394
head -1.04374 -10.2938 4.45311
rclavicle -4.21423e-014 9.54166e-015
rhumerus -34.0384 36.1467 -98.2499
rradius 45.0348
rwrist -5.3432
rhand -24.3533 -26.0606
rfingers 7.12502
rthumb 2.13618 -56.0296
lclavicle -4.21423e-014 9.54166e-015
lhumerus -17.3948 -32.2045 81.7392
lradius 43.364
lwrist 6.96716
lhand -22.2084 -25.6279
lfingers 7.12502
lthumb 4.20754 4.31025
rfemur -32.7855 -6.63146 21.789
rtibia 61.1171
rfoot -25.9877 -8.34749
rtoes 0.987409
lfemur -7.56809 -5.50718 -13.5418
ltibia 48.1263
lfoot -21.8454 5.60116
ltoes -32.0676
363
root 26.4928 15.5337 -1.28814 5.57508 -18.451 10.0832
lowerback 1.32747 -1.8943 -2.44548
upperback -0.525444 -2.58974 -1.24347
thorax -1.23154 -1.28101 0.155177
lowerneck 2.15293 -15.4011 -8.82875
upperneck -8.6009 -20.468 9.49429
head -1.15146 -10.2858 4.57261
rclavicle 8.34896e-015 2.14687e-014
rhumerus -33.7195 36.121 -97.6783
rradius 44.1349
rwrist -4.85916
rhand -24.357 -25.8524
rfingers 7.12502
rthumb 2.13255 -55.8215
lclavicle 8.34896e-015 2.14687e-014
lhumerus -17.591 -31.2229 82.3568
lradius 43.285
lwrist 6.02257
lhand -22.6632 -25.8745
lfingers 7.12502
lthumb 3.76837 4.07191
rfemur -33.3099 -7.14116 22.2025
rtibia 61.7689
rfoot -26.4203 -8.95583
rtoes -0.0451663
lfemur -5.57482 -5.49808 -12.796
ltibia 47.6961
lfoot -20.9255 5.62705
ltoes -32.6628
364
root 26.5498 15.4721 -1.37873 5.61834 -17.8976 9.52932
lowerback 1.62241 -1.98693 -1.93938
upperback -0.48157 -2.70592 -0.91122
thorax -1.35653 -1.34034 0.225874
lowerneck 2.14898 -15.3857 -9.13608
upperneck -9.00921 -20.4421 9.66079
head -1.23797 -10.2681 4.69832
rclavicle -2.73329e-014 -6.36111e-015
rhumerus -33.3054 35.9172 -97.0828
rradius 43.0955
rwrist -4.25907
rhand -24.3097 -25.6201
rfingers 7.12502
rthumb 2.17829 -55.5887
lclavicle -2.73329e-014 -6.36111e-015
lhumerus -17.8855 -30.108 83.0066
lradius 43.1595
lwrist 5.11902
lhand -23.2797 -26.0855
lfingers 7.12502
lthumb 3.17297 3.87067
rfemur -33.8485 -7.59536 22.8583
rtibia 62.3118
rfoot -26.7066 -9.60704
rtoes -1.07472
lfemur -3.70351 -5.4322 -11.8203
ltibia 47.2148
lfoot -19.8257 5.42957
ltoes -33.5832
365
root 26.6042 15.4188 -1.46774 5.74907 -17.3049 8.88867
lowerback 1.81662 -2.08613 -1.26886
upperback -0.426123 -2.82182 -0.631206
thorax -1.42442 -1.40208 0.148073
lowerneck 2.13006 -15.3904 -9.33639
upperneck -9.35795 -20.4373 9.85343
head -1.30836 -10.2647 4.81072
rclavicle 3.97569e-014 4.77083e-015
rhumerus -32.804 35.3566 -96.528
rradius 41.9131
rwrist -3.50984
rhand -24.3124 -25.428
rfingers 7.12502
rthumb 2.17568 -55.3967
lclavicle 3.97569e-014 4.77083e-015
lhumerus -18.2583 -29.0723 83.604
lradius 42.9924
lwrist 4.30553
lhand -24.0295 -26.272
lfingers 7.12502
lthumb 2.44882 3.69374
rfemur -34.4083 -8.05097 23.6175
rtibia 62.75
rfoot -26.8739 -10.2316
rtoes -1.98984
lfemur -1.98763 -5.36402 -10.7542
ltibia 46.6743
lfoot -18.5119 5.05243
ltoes -34.8173
366
root 26.6538 15.3751 -1.5559 5.91435 -16.6572 8.34002
lowerback 1.91006 -2.20139 -0.656893
upperback -0.359416 -2.95784 -0.417906
thorax -1.42643 -1.47417 0.0313642
lowerneck 1.99794 -15.4209 -9.41667
upperneck -9.84692 -20.4059 10.3711
head -1.23166 -10.2751 4.5044
rclavicle -4.31363e-014 5.56597e-015
rhumerus -32.2283 34.4267 -95.9879
rradius 40.5915
rwrist -2.58381
rhand -24.4616 -25.2968
rfingers 7.12502
rthumb 2.03152 -55.2669
lclavicle -4.31363e-014 5.56597e-015
lhumerus -18.6942 -28.1024 84.1716
lradius 42.7592
lwrist 3.59248
lhand -24.8976 -26.4761
lfingers 7.12502
lthumb 1.61043 3.49761
rfemur -34.9999 -8.5241 24.2993
rtibia 63.0956
rfoot -26.9442 -10.7959
rtoes -2.69537
lfemur -0.43319 -5.32503 -9.78665
ltibia 46.0562
lfoot -16.9723 4.57215
ltoes -36.1945
367
root 26.6969 15.3418 -1.64445 6.05273 -15.9664 8.06655
lowerback 1.92424 -2.33915 -0.318205
upperback -0.283655 -3.13101 -0.303009
thorax -1.36763 -1.56305 -0.0359899
lowerneck 1.91128 -15.455 -9.4095
upperneck -10.1194 -20.4286 10.5059
head -1.28244 -10.2903 4.54654
rclavicle 8.54774e-015 -1.35174e-014
rhumerus -31.5783 33.1078 -95.4551
rradius 39.1138
rwrist -1.43076
rhand -24.7695 -25.2262
rfingers 7.12502
rthumb 1.73422 -55.1989
lclavicle 8.54774e-015 -1.35174e-014
lhumerus -19.1887 -27.1886 84.7064
lradius 42.4468
lwrist 3.00033
lhand -25.8605 -26.7401
lfingers 7.12502
lthumb 0.680519 3.23853
rfemur -35.6293 -8.99046 24.7121
rtibia 63.3706
rfoot -26.9259 -11.3363
rtoes -3.2496
lfemur 0.979431 -5.33069 -9.12013
ltibia 45.3419
lfoot -15.2727 4.00301
ltoes -37.4479
368
root 26.7335 15.3191 -1.73403 6.13486 -15.2333 8.12719
lowerback 1.89193 -2.49772 -0.334075
upperback -0.204684 -3.34198 -0.291945
thorax -1.26689 -1.66855 -0.0133612
lowerneck 1.81967 -15.4979 -9.29078
upperneck -10.3709 -20.4629 10.5693
head -1.34427 -10.3122 4.55463
rclavicle -3.22031e-014 6.36111e-015
rhumerus -30.8863 31.3823 -94.9245
rradius 37.4903
rwrist -0.0291925
rhand -25.2149 -25.2738
rfingers 7.12502
rthumb 1.30403 -55.2496
lclavicle -3.22031e-014 6.36111e-015
lhumerus -19.7413 -26.3607 85.2216
lradius 42.0414
lwrist 2.5462
lhand -26.8909 -27.0735
lfingers 7.12502
lthumb -0.314694 2.90605
rfemur -36.2769 -9.40391 24.7872
rtibia 63.5809
rfoot -26.7992 -11.9906
rtoes -4.01121
lfemur 2.27194 -5.39678 -8.82948
ltibia 44.5332
lfoot -13.4874 3.40049
ltoes -38.4689
369
root 26.7652 15.3077 -1.82503 6.14225 -14.5024 8.4903
lowerback 1.87691 -2.66493 -0.682694
upperback -0.130645 -3.57322 -0.35953
thorax -1.16538 -1.78246 0.114903
lowerneck 1.76535 -15.5447 -9.12564
upperneck -10.6077 -20.5071 10.5814
head -1.41724 -10.3395 4.54582
rclavicle 6.95746e-015 -1.43125e-014
rhumerus -30.2085 29.2821 -94.377
rradius 35.7572
rwrist 1.62198
rhand -25.762 -25.5543
rfingers 7.12502
rthumb 0.775602 -55.5327
lclavicle 6.95746e-015 -1.43125e-014
lhumerus -20.3521 -25.6018 85.7509
lradius 41.5153
lwrist 2.2091
lhand -27.9606 -27.4727
lfingers 7.12502
lthumb -1.34787 2.50277
rfemur -36.8946 -9.69529 24.5316
rtibia 63.7163
rfoot -26.5589 -12.7912
rtoes -5.0193
lfemur 3.49476 -5.49845 -8.90484
ltibia 43.6504
lfoot -11.7013 2.81691
ltoes -39.2647
370
root 26.794 15.3091 -1.91659 6.13329 -13.7666 8.99224
lowerback 1.87708 -2.84113 -1.18377
upperback -0.0753868 -3.82014 -0.455078
thorax -1.08124 -1.90379 0.300226
lowerneck 1.79538 -15.5837 -8.98508
upperneck -10.842 -20.5487 10.5893
head -1.50102 -10.3662 4.54643
rclavicle -3.18055e-014 -7.95139e-016
rhumerus -29.5961 26.8554 -93.7939
rradius 33.9628
rwrist 3.43173
rhand -26.3543 -26.1475
rfingers 7.12502
rthumb 0.203548 -56.1272
lclavicle -3.18055e-014 -7.95139e-016
lhumerus -21.0099 -24.8881 86.314
lradius 40.8308
lwrist 1.93609
lhand -29.0353 -27.9192
lfingers 7.12502
lthumb -2.3858 2.04721
rfemur -37.4612 -9.84768 24.098
rtibia 63.7444
rfoot -26.2499 -13.5921
rtoes -5.71692
lfemur 4.62619 -5.61404 -9.17225
ltibia 42.7326
lfoot -9.9612 2.2642
ltoes -39.7793
